<svg xmlns="http://www.w3.org/2000/svg" xmlns:bx="https://boxy-svg.com" viewBox="2.99 84.04 600 238.91">
  <defs>
    <style bx:fonts="Allerta">@import url(https://fonts.googleapis.com/css2?family=Allerta%3Aital%2Cwght%400%2C400&amp;display=swap);</style>
  </defs>
  <g stroke="null" transform="matrix(0.76707, 0, 0, 0.76707, -7.96093, 82.21711)" style="">
    <title stroke="null">Layer 1</title>
    <g stroke="null" id="svg_1" fill="#FFFFFF" transform="translate(0 300) scale(0.05 -0.05)">
      <path stroke="null" id="svg_2" d="m2668.90157,5867.89088l0,-84.68087l160.89365,0l160.89365,0l0,84.68087l0,84.68087l-160.89365,0l-160.89365,0l0,-84.68087z" style="fill: #FFFFFF;"/>
      <path stroke="null" id="svg_3" d="m2668.90157,5436.01846l0,-262.51069l160.89365,0l160.89365,0l0,262.51069l0,262.51069l-160.89365,0l-160.89365,0l0,-262.51069z" style="fill: #FFFFFF;"/>
      <path stroke="null" id="svg_4" d="m2778.9867,5071.89073c-18.62979,-8.46809 -331.10219,-111.77874 -694.38311,-229.48515c-363.28092,-118.55321 -669.82566,-222.71068 -681.68098,-232.02558c-16.93617,-13.54894 -21.17022,-288.76176 -21.17022,-1271.90663l0,-1255.81726l215.0894,-186.29791c118.55321,-102.46385 270.13197,-235.41281 335.33623,-296.38304c198.15323,-181.21706 483.52775,-431.87242 500.46393,-437.80008c10.1617,-3.38723 16.08936,318.40006 16.08936,823.94484l0,829.02569l-317.55325,177.82982l-317.55325,176.98301l-5.08085,154.96599c-2.54043,85.52768 -1.69362,154.96599 2.54043,154.96599c44.03405,0 832.41292,-223.55749 842.57463,-239.64685c56.73618,-91.45534 30.48511,-465.74477 -44.88086,-644.4214c-76.21278,-182.06386 -78.75321,-170.20854 70.28512,-320.09368c162.58727,-163.43407 155.8128,-163.43407 315.85963,-2.54043c147.34471,148.19152 151.57875,163.43407 87.22129,292.14899c-85.52768,171.05535 -120.24683,620.71076 -52.50214,688.45545c10.1617,9.3149 801.92781,226.09792 829.8725,226.09792c6.77447,0 11.00851,-69.43831 8.46809,-154.96599l-5.08085,-154.96599l-289.60857,-162.58727c-159.20003,-89.76172 -302.3107,-172.74897 -317.55325,-185.4511c-39.80001,-33.87235 -43.18724,-1654.66414 -3.38723,-1639.42159c13.54894,5.08085 254.0426,213.39579 533.48946,462.35753l508.93201,452.19583l-4.23404,1254.97045l-4.23404,1254.12364l-728.25546,241.34047c-400.5405,132.10215 -731.64269,240.49366 -736.72354,239.64685c-4.23404,0 -23.71064,-7.62128 -42.34043,-15.24256z" style="fill: #FFFFFF;"/>
    </g>
    <line stroke-width="10" stroke-linecap="undefined" stroke-linejoin="undefined" id="svg_6" y2="166.732" x2="270.867" y1="307.311" x1="130.339" style="stroke: #FFFFFF;"/>
    <line transform="rotate(-90 80.7246 226.948)" stroke-width="10" stroke-linecap="undefined" stroke-linejoin="undefined" id="svg_7" y2="167.023" x2="140.722" y1="276.937" x1="30.995" style="stroke: #FFFFFF;"/>
  </g>
  <text style="letter-spacing: 2; fill:#FFFFFF ;font-family: serif; font-size: 92px; white-space: pre;" x="260" y="210.538" stroke="#FFFFFF">SILVA</text>
  <text style="letter-spacing: 2; fill:#FFFFFF ;font-family: sans-serif; font-size: 44px; font-weight: 700; white-space: pre;" x="180" y="275" >GAMING STUDIOS</text>
</svg>