<?xml version="1.0" standalone="no"?>
<!DOCTYPE svg PUBLIC "-//W3C//DTD SVG 20010904//EN"
 "http://www.w3.org/TR/2001/REC-SVG-20010904/DTD/svg10.dtd">
<svg version="1.0" xmlns="http://www.w3.org/2000/svg"
 width="600.000000pt" height="600.000000pt" viewBox="0 0 600.000000 600.000000"
 preserveAspectRatio="xMidYMid meet">
<metadata>
Created by potrace 1.10, written by Peter Selinger 2001-2011
</metadata>
<g transform="translate(0.000000,600.000000) scale(0.100000,-0.100000)"
fill="#000000" stroke="none">
<path d="M560 4252 c-14 -2 -29 -8 -34 -13 -6 -5 -17 -9 -26 -9 -54 0 -190
-122 -190 -171 0 -10 -4 -21 -10 -24 -13 -8 -13 -172 0 -180 6 -3 10 -12 10
-20 0 -23 58 -102 98 -133 50 -39 198 -135 248 -161 23 -12 50 -31 59 -41 16
-18 17 -23 5 -46 -21 -38 -43 -46 -137 -45 -64 0 -94 4 -122 19 -63 33 -94 36
-118 10 -29 -32 -63 -111 -63 -148 0 -39 23 -61 132 -126 137 -83 235 -114
357 -114 147 0 263 47 327 133 21 28 37 68 48 119 16 73 16 81 0 140 -25 89
-68 142 -209 256 -38 31 -72 60 -75 64 -3 3 -28 18 -55 32 -81 41 -90 49 -74
74 7 11 29 25 50 30 42 11 156 -3 179 -22 42 -36 74 -28 96 23 9 20 22 51 30
70 21 48 6 76 -64 128 -31 23 -69 53 -83 67 -35 32 -98 66 -124 66 -12 0 -25
4 -31 10 -10 10 -181 20 -224 12z m205 -61 c33 -7 64 -17 70 -22 5 -5 19 -9
32 -9 27 0 46 -36 32 -62 -5 -9 -9 -24 -9 -33 0 -9 -9 -30 -20 -45 l-20 -28
-52 20 c-29 11 -87 22 -128 25 -71 5 -77 4 -108 -22 -39 -33 -43 -75 -9 -109
35 -36 111 -87 160 -107 15 -6 27 -15 27 -20 0 -5 6 -9 13 -9 13 0 25 -8 110
-75 89 -71 122 -167 97 -286 -11 -52 -21 -69 -64 -114 -80 -82 -126 -98 -276
-98 -130 -1 -129 -1 -247 55 -33 15 -43 25 -43 43 0 13 5 27 10 30 6 3 10 15
10 26 0 10 9 28 20 39 20 20 21 20 58 1 128 -66 275 -52 330 32 47 71 1 137
-143 212 -164 85 -200 112 -241 183 -23 39 -27 56 -26 129 1 85 13 120 61 177
24 28 106 66 143 66 18 0 40 5 48 10 17 12 78 8 165 -9z m308 -816 c-3 -8 -9
-15 -14 -15 -10 0 -12 24 -3 33 11 11 24 -3 17 -18z m-88 -122 c-8 -44 -10
-47 -24 -38 -12 7 -15 58 -4 68 3 4 13 7 21 7 11 0 13 -8 7 -37z"/>
<path d="M1428 4229 c-15 -6 -29 -21 -32 -35 -4 -13 -6 -240 -5 -503 1 -478 1
-479 22 -499 12 -11 38 -28 57 -39 20 -10 49 -30 65 -46 32 -29 49 -33 170
-41 56 -3 85 -1 97 8 16 12 17 43 17 367 l-1 354 -26 30 c-15 16 -20 24 -11
17 30 -23 39 5 39 130 0 114 -1 119 -22 127 -13 5 -35 19 -49 32 -14 13 -47
42 -74 63 -47 39 -51 40 -134 43 -47 1 -98 -2 -113 -8z m204 -79 c7 -31 8
-266 4 -785 l-1 -160 -85 3 c-53 2 -90 8 -98 16 -19 18 -18 946 1 958 6 5 48
7 92 6 l79 -3 8 -35z m125 -265 c3 -9 -2 -24 -11 -34 -18 -20 -66 -34 -66 -20
0 22 21 58 37 62 31 8 33 7 40 -8z m-37 -104 c0 -11 -26 -22 -34 -14 -3 4 -6
15 -6 25 0 16 3 17 20 8 11 -6 20 -15 20 -19z m30 -131 c0 -15 -7 -20 -24 -20
-14 0 -28 4 -31 10 -3 6 1 7 9 4 9 -4 18 1 22 10 9 22 24 20 24 -4z m10 -85
c0 -28 -15 -34 -24 -9 -10 25 -7 34 9 34 9 0 15 -9 15 -25z m-33 -74 c3 -11
11 -22 19 -25 18 -7 18 -46 1 -46 -12 0 -47 59 -47 80 0 18 22 10 27 -9z m-6
-154 c-8 -8 -11 -7 -11 4 0 20 13 34 18 19 3 -7 -1 -17 -7 -23z"/>
<path d="M2174 4230 c-12 -5 -25 -13 -28 -18 -3 -5 -6 -230 -7 -501 -1 -395 1
-494 12 -507 7 -9 36 -31 64 -49 27 -18 67 -45 87 -60 l37 -27 301 0 c202 1
306 5 315 12 9 8 12 35 11 93 -3 89 -8 107 -33 107 -8 0 -27 12 -42 28 -14 15
-46 44 -70 66 l-43 39 -106 1 -107 1 -1 328 0 328 -31 30 c-18 16 -36 29 -41
29 -5 0 -29 20 -54 44 -25 24 -55 49 -66 55 -24 13 -167 14 -198 1z m195 -58
c11 -20 14 -236 9 -565 -2 -180 0 -227 10 -227 146 0 378 -14 384 -23 4 -7 8
-45 8 -85 l0 -74 -286 4 c-248 3 -288 6 -298 20 -8 11 -11 139 -9 489 1 261 2
475 3 477 0 1 38 2 85 2 70 0 86 -3 94 -18z m111 -382 c0 -5 -5 -12 -11 -16
-14 -8 -33 11 -25 25 7 11 36 4 36 -9z m112 -642 c-9 -9 -15 -9 -24 0 -10 10
-10 15 2 22 20 12 38 -6 22 -22z"/>
<path d="M3094 4230 c-23 -9 -36 -51 -23 -72 5 -7 9 -23 9 -35 0 -13 3 -23 8
-23 4 0 16 -24 26 -52 10 -29 31 -82 48 -118 16 -35 32 -77 35 -92 3 -16 10
-31 14 -34 5 -3 9 -12 9 -21 0 -9 9 -34 19 -57 18 -38 41 -91 60 -141 5 -11
18 -41 30 -66 11 -25 21 -51 21 -56 0 -6 7 -24 15 -39 8 -16 15 -37 15 -46 0
-10 4 -18 10 -18 5 0 12 -16 16 -35 3 -19 10 -35 14 -35 5 0 11 -13 15 -30 9
-40 54 -83 152 -145 79 -49 87 -52 154 -53 85 -2 104 7 113 49 3 18 12 39 18
47 13 15 36 71 45 108 3 14 -2 23 -19 31 l-23 11 25 6 c29 8 80 75 80 104 0
11 6 33 14 49 8 15 28 56 45 89 17 34 31 69 31 77 0 8 6 28 14 44 8 15 29 64
46 108 49 123 55 135 88 205 18 36 32 71 32 78 0 6 -17 22 -38 36 -20 13 -43
31 -51 40 -7 9 -19 16 -25 16 -6 0 -27 16 -46 35 -26 27 -42 35 -71 35 -20 0
-63 3 -96 6 -57 6 -62 5 -91 -23 -17 -16 -34 -42 -38 -58 -4 -16 -13 -40 -20
-54 -8 -14 -14 -31 -14 -38 0 -6 -8 -26 -17 -45 -30 -61 -33 -68 -33 -84 0 -8
-5 -25 -12 -37 -19 -35 -47 -120 -48 -144 0 -37 -24 -26 -43 20 -10 23 -24 55
-32 70 -8 16 -15 37 -15 47 0 26 -18 34 -37 18 -17 -14 -17 -15 3 66 9 38 -35
105 -112 169 -101 84 -116 91 -214 93 -47 1 -95 -1 -106 -6z m230 -105 c27
-55 46 -97 60 -135 4 -8 17 -33 31 -55 13 -22 24 -53 25 -70 0 -16 7 -39 15
-49 8 -11 15 -29 15 -40 0 -12 7 -30 15 -40 8 -11 15 -29 15 -40 0 -12 7 -30
15 -40 8 -11 15 -26 15 -34 0 -33 32 -122 44 -122 13 0 46 72 46 99 0 11 67
161 105 234 8 16 15 33 15 39 0 5 6 24 14 41 8 18 24 59 37 92 13 33 26 65 30
70 3 6 9 23 13 39 4 15 14 39 23 52 14 22 22 24 99 24 45 0 85 -4 88 -8 9 -16
-12 -85 -53 -173 -11 -25 -21 -49 -21 -53 0 -8 -42 -102 -66 -148 -8 -14 -14
-33 -14 -42 0 -9 -14 -47 -31 -84 -39 -82 -52 -114 -74 -172 -9 -25 -23 -60
-31 -77 -15 -35 -31 -73 -58 -136 -9 -21 -16 -51 -16 -67 0 -27 -3 -30 -32
-30 -18 0 -56 3 -84 6 -49 6 -53 9 -73 49 -11 23 -21 47 -21 53 0 6 -6 23 -14
39 -8 15 -19 39 -25 53 -40 97 -53 127 -61 142 -6 10 -10 23 -10 29 0 6 -6 25
-14 42 -44 96 -56 127 -56 141 0 9 -4 16 -9 16 -5 0 -12 18 -16 40 -4 22 -11
40 -16 40 -5 0 -9 5 -9 11 0 12 -22 66 -46 112 -8 16 -14 34 -14 40 -1 7 -9
30 -20 52 -11 22 -19 44 -20 49 0 5 -7 17 -16 27 -9 10 -14 25 -10 34 5 13 21
15 93 13 l88 -3 29 -60z m834 -57 c-2 -13 -7 -23 -13 -23 -5 0 -11 10 -13 23
-2 15 2 22 13 22 11 0 15 -7 13 -22z m-60 -72 c3 -12 -1 -17 -10 -14 -7 3 -15
13 -16 22 -3 12 1 17 10 14 7 -3 15 -13 16 -22z m-190 -478 c-2 -6 -10 -14
-16 -16 -7 -2 -10 2 -6 12 7 18 28 22 22 4z m-26 -70 c-9 -9 -12 -7 -12 12 0
19 3 21 12 12 9 -9 9 -15 0 -24z m16 -52 c6 -31 -15 -42 -38 -21 -20 18 -20
20 -4 32 22 16 38 12 42 -11z m-24 -45 c9 -13 -3 -39 -20 -45 -17 -6 -29 17
-20 39 6 17 32 20 40 6z m-44 -70 c0 -11 5 -23 10 -26 15 -9 12 -25 -5 -25
-10 0 -15 -10 -15 -29 0 -30 -3 -32 -62 -46 -21 -5 -21 -5 -5 5 13 9 17 19 13
36 -5 17 -1 26 14 34 11 6 20 21 20 34 0 12 3 26 7 29 12 13 23 7 23 -12z
m-104 -108 c-11 -11 -17 4 -9 23 7 18 8 18 11 1 2 -10 1 -21 -2 -24z"/>
<path d="M4705 4233 c-26 -6 -61 -43 -70 -74 -8 -28 -32 -86 -45 -111 -6 -10
-10 -23 -10 -30 0 -7 -13 -40 -30 -72 -16 -33 -32 -72 -35 -88 -4 -15 -11 -30
-16 -33 -5 -4 -9 -13 -9 -22 0 -9 -10 -37 -21 -62 -12 -25 -25 -55 -30 -66 -4
-11 -17 -41 -28 -67 -12 -26 -21 -54 -21 -62 0 -9 -4 -16 -10 -16 -5 0 -10 -7
-10 -16 0 -8 -9 -36 -21 -62 -11 -26 -24 -56 -28 -67 -5 -11 -18 -41 -30 -66
-11 -25 -21 -62 -21 -82 0 -40 -2 -38 127 -121 l83 -53 96 3 c101 3 124 12
123 48 0 11 6 39 14 61 l15 40 137 -1 c123 -1 139 -4 165 -23 16 -11 31 -21
34 -21 10 0 101 -63 114 -79 19 -23 230 -34 255 -13 20 18 22 40 4 61 -7 9
-21 36 -31 61 -18 46 -34 84 -59 143 -8 17 -22 52 -32 77 -9 25 -23 59 -30 75
-7 17 -27 66 -45 110 -17 44 -38 94 -45 110 -17 38 -34 79 -75 185 -62 160
-78 186 -138 231 -32 24 -60 46 -63 51 -3 4 -20 19 -39 33 -28 21 -44 25 -94
24 -34 -1 -70 -3 -81 -6z m147 -55 c13 -11 42 -66 62 -118 3 -8 10 -22 14 -30
19 -32 42 -88 61 -145 11 -33 24 -61 30 -63 6 -2 11 -14 11 -27 0 -13 6 -36
14 -52 13 -26 29 -62 61 -138 7 -16 20 -50 30 -75 9 -25 23 -58 31 -73 8 -16
14 -33 14 -38 0 -5 18 -48 40 -95 23 -48 40 -94 38 -103 -3 -13 -18 -16 -92
-14 -76 1 -91 4 -112 24 -13 12 -24 29 -24 36 0 8 -9 32 -21 54 -19 38 -23 41
-52 35 -46 -8 -333 -9 -347 -1 -20 12 -57 -4 -63 -27 -11 -45 -34 -99 -49
-114 -13 -13 -30 -14 -96 -9 -68 6 -82 11 -88 27 -3 11 1 27 10 37 9 10 16 21
16 25 0 5 6 22 14 39 41 90 56 127 56 136 0 5 6 22 14 38 24 46 46 100 46 112
0 6 4 19 9 29 58 117 71 145 71 154 0 11 22 66 46 111 8 16 14 35 14 44 0 8 7
27 14 41 19 35 42 90 52 122 17 59 32 70 98 70 35 0 69 -6 78 -12z m228 -344
c0 -17 -22 -14 -28 4 -2 7 3 12 12 12 9 0 16 -7 16 -16z m-381 -599 c15 -15 7
-35 -15 -35 -9 0 -23 -9 -32 -20 -14 -16 -24 -19 -50 -14 -37 8 -37 25 1 69
18 20 28 24 52 19 17 -3 36 -12 44 -19z"/>
<path d="M4736 3823 c-15 -43 -30 -91 -33 -108 -3 -16 -12 -35 -19 -43 -8 -7
-14 -19 -14 -26 0 -6 -9 -29 -20 -51 -36 -71 -38 -70 132 -70 152 0 178 6 143
35 -8 7 -15 20 -15 30 0 10 -7 23 -15 30 -8 7 -15 20 -15 29 0 9 -4 21 -10 27
-5 5 -25 57 -43 114 -21 67 -39 106 -49 108 -11 2 -23 -19 -42 -75z m49 -92
c6 -10 -21 -41 -36 -41 -13 0 -11 24 3 38 14 14 25 15 33 3z"/>
<path d="M4612 3218 c7 -20 48 -23 48 -4 0 11 -9 16 -26 16 -16 0 -24 -5 -22
-12z"/>
<path d="M4620 2685 c-10 -11 -11 -39 -6 -110 7 -92 7 -95 -14 -95 -11 0 -23
6 -26 14 -7 18 -66 29 -113 21 -77 -13 -160 -127 -147 -200 10 -52 61 -122
105 -145 49 -25 109 -26 150 -2 25 14 34 15 48 4 33 -22 45 -25 54 -11 5 8 8
131 6 274 -2 255 -2 260 -23 263 -11 2 -27 -4 -34 -13z m-42 -260 c56 -47 52
-142 -8 -182 -80 -55 -190 -1 -190 92 0 96 124 152 198 90z"/>
<path d="M2002 2658 c-21 -21 -14 -57 13 -70 32 -14 55 3 55 42 0 37 -42 54
-68 28z"/>
<path d="M3638 2654 c-14 -14 -15 -41 -11 -208 2 -105 6 -202 9 -214 8 -37 63
-82 100 -82 50 0 94 30 94 63 0 23 -4 27 -29 27 -17 0 -33 -4 -36 -10 -10 -16
-47 -12 -61 8 -9 11 -13 49 -14 114 l0 97 53 3 c50 3 52 4 52 33 0 28 -2 30
-40 31 -22 0 -45 2 -52 2 -8 2 -12 22 -10 67 1 49 -2 68 -13 75 -20 13 -23 13
-42 -6z"/>
<path d="M4766 2657 c-11 -8 -17 -23 -14 -38 2 -20 8 -24 38 -24 29 0 36 4 38
23 4 25 -13 52 -32 52 -7 0 -20 -6 -30 -13z"/>
<path d="M613 2514 c-12 -3 -41 -23 -66 -44 -103 -91 -81 -236 45 -301 48 -24
89 -24 138 1 51 26 60 25 60 -5 0 -61 -63 -125 -124 -125 -16 0 -44 11 -62 25
-41 31 -70 32 -77 3 -8 -27 14 -53 65 -79 69 -35 150 -17 209 48 43 46 49 82
49 278 0 156 -2 185 -16 196 -14 11 -19 10 -34 -9 -21 -26 -33 -27 -54 -7 -16
16 -94 27 -133 19z m128 -87 c88 -76 39 -207 -78 -207 -28 0 -48 8 -73 29 -32
27 -35 33 -35 86 0 51 3 59 33 86 42 38 113 40 153 6z"/>
<path d="M1033 2513 c-40 -8 -110 -88 -118 -134 -11 -65 2 -120 38 -160 62
-70 143 -88 211 -48 36 21 56 19 56 -7 0 -23 36 -16 46 9 6 12 7 67 4 123 -5
90 -9 106 -34 142 -45 65 -117 92 -203 75z m124 -83 c96 -76 50 -210 -72 -210
-105 0 -150 130 -72 202 39 35 105 39 144 8z"/>
<path d="M1357 2513 c-16 -4 -17 -19 -15 -181 l3 -177 30 0 30 0 1 118 c1 115
2 119 30 148 39 40 99 41 137 1 25 -26 26 -33 29 -147 l3 -120 30 0 30 0 3
125 c3 121 4 126 29 147 38 33 102 32 134 -3 22 -24 24 -33 24 -137 0 -119 5
-137 35 -137 31 0 37 29 31 157 -6 117 -7 123 -35 152 -67 70 -147 78 -218 21
l-39 -32 -27 27 c-48 48 -99 57 -159 28 -33 -15 -36 -15 -45 0 -9 18 -11 18
-41 10z"/>
<path d="M2005 2508 c-3 -8 -4 -90 -3 -183 l3 -170 26 -3 c35 -4 35 0 29 198
-5 162 -5 165 -28 168 -12 2 -24 -3 -27 -10z"/>
<path d="M2144 2507 c-2 -7 -3 -89 -2 -182 l3 -170 24 -3 c13 -2 28 2 32 10 5
7 9 61 9 120 l0 107 33 30 c45 43 109 44 154 2 39 -35 42 -49 46 -171 l2 -95
30 0 30 0 3 94 c4 125 -14 178 -75 228 -42 35 -51 38 -109 38 -47 0 -67 -5
-83 -19 -21 -19 -22 -19 -44 2 -26 25 -45 28 -53 9z"/>
<path d="M2705 2513 c-44 -12 -103 -72 -120 -123 -20 -59 -15 -91 24 -152 50
-78 146 -109 213 -68 51 31 62 27 55 -22 -4 -33 -14 -50 -43 -75 -47 -42 -93
-44 -141 -7 -18 14 -41 24 -51 22 -21 -4 -28 -44 -11 -64 20 -24 90 -54 126
-54 61 0 153 63 174 118 5 13 9 113 9 223 0 171 -2 200 -16 206 -8 3 -25 -4
-39 -17 -23 -22 -26 -22 -44 -6 -19 17 -101 29 -136 19z m125 -85 c60 -44 63
-139 5 -183 -78 -60 -195 -6 -195 90 0 92 115 149 190 93z"/>
<path d="M3340 2513 c-8 -3 -30 -19 -47 -36 -53 -50 -43 -111 27 -160 17 -12
44 -17 92 -17 57 0 69 -3 78 -20 8 -14 8 -26 0 -40 -13 -23 -10 -23 -120 -21
-94 2 -113 -5 -108 -40 3 -23 6 -24 114 -27 l110 -3 37 37 c48 48 50 89 6 139
-30 34 -34 35 -98 35 -70 0 -101 16 -101 51 0 29 24 39 97 39 63 0 74 3 83 21
20 36 -3 49 -84 48 -39 0 -78 -3 -86 -6z"/>
<path d="M3887 2513 c-10 -10 -8 -218 2 -245 5 -13 22 -36 38 -53 64 -66 142
-83 207 -44 36 21 56 19 56 -7 0 -17 34 -19 48 -1 6 7 10 82 11 179 l1 168
-24 6 c-14 3 -30 3 -35 -1 -7 -4 -11 -47 -11 -106 0 -68 -5 -109 -14 -128 -36
-68 -121 -82 -181 -30 l-35 31 0 113 c0 94 -3 114 -16 119 -20 8 -39 8 -47 -1z"/>
<path d="M4773 2512 c-10 -6 -17 -173 -13 -339 0 -19 6 -23 30 -23 l30 0 -2
182 c-3 153 -5 183 -18 185 -8 2 -20 -1 -27 -5z"/>
<path d="M5012 2513 c-13 -2 -43 -23 -67 -46 -94 -91 -81 -212 30 -289 116
-80 287 28 273 172 -11 110 -123 188 -236 163z m134 -97 c29 -29 34 -41 34
-81 0 -42 -5 -52 -36 -81 -29 -28 -43 -34 -79 -34 -37 0 -50 6 -78 34 -44 44
-52 77 -31 122 24 51 59 74 111 74 38 0 50 -5 79 -34z"/>
</g>
</svg>
