<?xml version="1.0" standalone="no"?>
<!DOCTYPE svg PUBLIC "-//W3C//DTD SVG 20010904//EN"
 "http://www.w3.org/TR/2001/REC-SVG-20010904/DTD/svg10.dtd">
<svg version="1.0" xmlns="http://www.w3.org/2000/svg"
 width="600.000000pt" height="600.000000pt" viewBox="0 0 600.000000 600.000000"
 preserveAspectRatio="xMidYMid meet">
<metadata>
Created by potrace 1.10, written by Peter Selinger 2001-2011
</metadata>
<g transform="translate(0.000000,600.000000) scale(0.100000,-0.100000)"
fill="#000000" stroke="none">
<path d="M520 3693 c-25 -8 -60 -22 -78 -31 -44 -22 -119 -103 -128 -136 -3
-14 -10 -29 -15 -32 -5 -3 -9 -40 -9 -84 0 -98 28 -158 109 -230 70 -63 79
-70 87 -70 3 0 37 -20 74 -45 37 -24 75 -47 86 -51 31 -11 84 -54 84 -68 0 -7
-14 -25 -31 -42 -28 -27 -36 -29 -107 -29 -72 0 -110 10 -174 45 -10 6 -27 10
-38 10 -21 0 -60 -33 -60 -50 0 -6 -9 -27 -20 -47 -39 -74 -25 -110 65 -163
22 -13 42 -26 45 -29 6 -7 50 -32 95 -54 90 -44 183 -59 320 -51 83 5 110 12
160 36 33 16 68 37 79 46 27 24 62 82 70 117 4 17 10 39 13 50 21 80 -2 170
-60 240 -56 67 -220 199 -297 240 -39 20 -70 40 -70 46 0 5 10 19 21 30 20 20
29 21 111 17 62 -4 94 -10 107 -22 10 -9 31 -16 47 -16 23 0 33 7 45 33 30 61
49 108 49 121 0 13 -85 96 -98 96 -4 0 -27 18 -52 40 -25 22 -54 43 -65 46
-11 4 -22 10 -25 14 -3 3 -36 14 -75 23 -83 20 -203 20 -265 0z m292 -60 c6
-7 24 -13 39 -13 35 0 62 -35 49 -61 -6 -10 -10 -26 -10 -36 0 -10 -10 -30
-23 -45 l-22 -27 -70 24 c-131 46 -236 23 -243 -54 -3 -27 3 -38 30 -63 28
-25 141 -98 153 -98 3 0 65 -40 129 -82 44 -30 96 -94 111 -136 32 -97 10
-206 -58 -275 -118 -119 -321 -137 -515 -47 -49 23 -60 42 -44 73 7 12 16 34
22 50 11 31 42 36 76 12 30 -20 139 -36 204 -28 47 5 61 12 98 48 46 47 52 74
24 116 -33 49 -47 59 -255 169 -58 30 -105 73 -136 123 -33 53 -33 177 -1 240
24 45 76 96 100 97 8 0 23 7 33 14 24 19 290 17 309 -1z m268 -778 c0 -8 -9
-15 -20 -15 -20 0 -26 11 -13 23 12 13 33 7 33 -8z m-90 -113 c0 -10 -6 -26
-13 -36 -13 -18 -14 -18 -21 -1 -9 24 2 55 20 55 8 0 14 -8 14 -18z"/>
<path d="M1410 3670 c-20 -20 -20 -31 -19 -502 l1 -481 31 -28 c17 -16 37 -29
43 -29 7 0 39 -20 73 -45 l61 -45 99 0 c70 0 102 4 110 13 7 9 10 121 10 358
-1 283 -4 347 -15 360 -13 14 -12 18 1 29 12 10 15 36 15 126 0 113 0 114 -27
131 -26 16 -121 92 -151 121 -9 8 -47 12 -113 12 -86 0 -102 -3 -119 -20z
m207 -32 c24 -30 25 -93 19 -803 l-1 -150 -90 3 c-49 2 -94 7 -98 11 -8 8 -9
89 -8 653 l1 287 68 4 c37 2 74 4 83 5 9 1 21 -4 26 -10z m140 -294 c6 -17
-28 -54 -52 -54 -22 0 -18 -28 5 -35 24 -8 17 -25 -11 -25 -15 0 -19 7 -19 34
0 47 15 83 37 89 31 8 33 7 40 -9z m-7 -223 c0 -10 -7 -22 -15 -25 -17 -6 -55
13 -55 28 0 4 7 2 16 -5 15 -12 18 -11 28 4 14 22 26 22 26 -2z m12 -81 c-5
-33 -19 -39 -29 -14 -4 11 1 22 12 30 10 8 19 14 20 14 1 0 0 -13 -3 -30z
m-34 -71 c-2 -6 -8 -10 -13 -10 -5 0 -11 4 -13 10 -2 6 4 11 13 11 9 0 15 -5
13 -11z m29 -45 c3 -8 1 -20 -4 -25 -12 -12 -48 14 -39 29 10 17 36 15 43 -4z"/>
<path d="M2156 3674 c-14 -13 -16 -62 -18 -362 -1 -191 -1 -410 1 -487 l3
-140 31 -27 c18 -15 36 -28 41 -28 4 0 25 -13 46 -30 21 -16 42 -30 48 -30 5
0 15 -7 22 -15 11 -13 58 -15 316 -15 350 0 322 -10 319 111 -2 83 -7 99 -34
99 -10 0 -23 11 -29 25 -6 14 -16 25 -21 25 -5 0 -31 18 -56 40 l-46 40 -104
0 c-100 0 -105 1 -110 23 -2 12 -3 155 -2 317 2 162 0 302 -5 311 -4 9 -32 33
-61 52 -30 20 -70 52 -90 72 l-35 35 -100 0 c-78 0 -104 -4 -116 -16z m208
-44 c16 -17 20 -174 14 -558 -1 -122 -3 -222 -3 -223 0 0 88 -3 195 -5 107 -3
197 -8 200 -10 8 -9 16 -134 9 -145 -7 -12 -567 -7 -586 4 -13 8 -7 938 6 946
20 13 151 5 165 -9z m111 -378 c0 -18 -20 -15 -23 4 -3 10 1 15 10 12 7 -3 13
-10 13 -16z m125 -607 c0 -8 -6 -15 -14 -15 -17 0 -28 14 -19 24 12 12 33 6
33 -9z"/>
<path d="M3083 3678 c-19 -24 -22 -48 -11 -76 33 -83 46 -113 92 -218 20 -45
36 -87 36 -93 0 -6 4 -19 9 -29 4 -9 15 -33 24 -52 44 -97 57 -130 57 -144 0
-9 5 -16 10 -16 6 0 10 -8 10 -18 0 -10 7 -27 15 -38 8 -10 15 -25 15 -32 0
-11 12 -41 50 -127 36 -81 50 -115 50 -122 0 -12 73 -83 85 -83 12 0 119 -72
123 -82 2 -5 43 -8 92 -8 93 0 103 4 115 52 4 15 13 32 21 39 8 6 14 18 14 26
0 8 7 30 16 49 13 28 14 37 4 49 -10 13 -8 19 11 38 31 29 59 72 59 91 0 16
16 55 61 151 15 33 49 112 75 175 68 170 68 170 102 240 38 78 39 86 10 101
-27 14 -129 92 -154 116 -13 13 -40 18 -114 21 -104 4 -129 -2 -147 -40 -24
-47 -53 -117 -53 -127 0 -5 -8 -24 -17 -43 -30 -61 -33 -68 -33 -84 0 -8 -5
-25 -12 -37 -17 -31 -47 -119 -48 -139 0 -31 -19 -29 -37 4 -20 39 -42 94 -50
126 -7 29 -20 37 -38 22 -19 -16 -20 0 -3 47 20 55 -24 125 -122 192 -19 14
-39 30 -43 38 -4 7 -14 13 -21 13 -8 0 -19 7 -26 15 -16 20 -212 22 -227 3z
m236 -85 c24 -46 50 -104 65 -143 3 -8 17 -33 31 -55 13 -22 24 -52 25 -67 0
-14 7 -40 15 -57 8 -17 22 -45 30 -62 8 -17 15 -38 15 -48 0 -9 7 -26 15 -37
8 -10 15 -27 15 -37 0 -34 32 -117 45 -117 12 0 45 73 45 101 0 8 7 24 15 35
8 10 15 26 15 35 0 9 7 22 15 29 8 7 15 21 15 31 0 9 7 24 15 33 8 8 15 19 15
24 0 5 9 31 21 58 11 27 25 60 31 74 5 14 16 39 24 55 7 17 16 42 20 58 3 15
10 30 15 33 5 3 9 13 9 22 0 10 8 32 18 51 l18 33 88 2 c48 1 90 -2 92 -6 8
-13 -14 -82 -55 -169 -11 -25 -21 -49 -21 -53 0 -8 -42 -102 -66 -148 -8 -14
-14 -33 -14 -41 0 -9 -20 -58 -44 -109 -23 -51 -51 -113 -61 -138 -9 -25 -30
-73 -46 -107 -16 -35 -29 -69 -29 -76 0 -7 -7 -22 -15 -33 -8 -10 -15 -34 -15
-53 l0 -34 -52 7 c-29 3 -68 6 -86 6 -34 0 -39 7 -87 125 -14 33 -24 56 -55
130 -12 28 -26 61 -32 75 -32 77 -41 98 -54 123 -8 16 -14 34 -14 40 -1 7 -9
30 -20 52 -11 22 -19 44 -20 50 0 9 -31 78 -66 148 -8 16 -14 34 -14 40 -1 7
-9 30 -20 52 -11 22 -19 46 -20 53 0 6 -4 12 -9 12 -15 0 -25 42 -12 49 6 4
47 7 92 6 l82 0 26 -52z m836 -66 c0 -26 -20 -25 -23 2 -3 16 1 22 10 19 7 -3
13 -12 13 -21z m-55 -73 c0 -17 -22 -14 -28 4 -2 7 3 12 12 12 9 0 16 -7 16
-16z m-202 -582 c16 -12 16 -14 -2 -28 -11 -8 -24 -14 -28 -14 -15 0 -21 31
-9 43 6 6 12 27 13 47 l1 35 4 -35 c2 -19 12 -41 21 -48z m-25 -66 c7 -19 -1
-26 -30 -26 -25 0 -26 1 -17 24 8 20 40 21 47 2z m-33 -83 c0 -15 -36 -18 -45
-3 -3 5 -1 19 6 32 11 21 12 21 25 3 8 -10 14 -25 14 -32z m-20 -47 c0 -22
-16 -36 -41 -36 -5 0 -9 14 -9 30 0 25 4 30 25 30 20 0 25 -5 25 -24z"/>
<path d="M4665 3663 c-14 -15 -28 -42 -31 -60 -3 -18 -10 -33 -14 -33 -5 0
-11 -13 -15 -30 -4 -16 -11 -32 -16 -35 -5 -4 -9 -13 -9 -22 0 -9 -16 -49 -35
-89 -19 -40 -35 -77 -35 -83 0 -6 -4 -19 -9 -29 -10 -17 -47 -99 -62 -137 -4
-11 -17 -41 -28 -67 -12 -26 -21 -51 -21 -57 0 -5 -6 -22 -14 -38 -8 -15 -22
-46 -31 -68 -9 -22 -20 -49 -25 -60 -50 -113 -54 -128 -51 -162 1 -15 39 -52
66 -64 27 -12 53 -29 97 -62 34 -26 42 -27 135 -26 109 1 133 12 133 60 0 15
4 30 9 33 4 3 11 19 14 35 6 28 8 29 49 26 24 -2 87 -4 140 -4 72 -1 100 -5
112 -16 8 -8 17 -15 20 -15 9 0 99 -62 134 -92 31 -27 37 -28 141 -28 103 0
108 1 120 23 11 21 9 32 -19 88 -18 35 -39 80 -47 99 -8 19 -21 48 -29 63 -8
16 -14 35 -14 42 0 7 -6 26 -14 42 -8 15 -21 45 -30 66 -9 20 -22 52 -30 70
-7 17 -21 52 -31 77 -9 25 -23 56 -30 70 -7 14 -33 77 -58 140 -86 216 -85
215 -172 282 -33 25 -71 55 -84 67 -20 18 -37 21 -107 21 -78 0 -85 -2 -109
-27z m200 -39 c8 -11 15 -23 15 -27 0 -4 14 -35 30 -69 17 -33 30 -65 30 -71
0 -6 6 -18 13 -26 7 -9 22 -43 32 -76 11 -33 25 -65 32 -71 7 -6 13 -22 13
-36 0 -13 4 -28 9 -34 5 -5 19 -34 31 -64 13 -30 36 -83 51 -118 16 -34 29
-67 29 -73 0 -6 6 -23 13 -37 8 -15 22 -45 31 -67 10 -22 31 -65 47 -96 39
-76 30 -84 -88 -75 -48 4 -91 10 -95 12 -5 3 -22 34 -38 70 l-29 64 -138 0
c-96 0 -143 -4 -151 -12 -10 -10 -17 -10 -33 0 -11 7 -24 10 -29 7 -5 -3 -19
-1 -30 5 -32 17 -54 -3 -76 -70 -10 -34 -27 -66 -37 -72 -11 -5 -51 -6 -98 -2
-86 7 -105 20 -75 53 9 10 16 27 16 39 0 11 7 27 15 36 8 8 15 18 15 23 1 4 9
26 20 48 11 22 19 48 20 58 0 9 4 17 9 17 5 0 12 16 15 35 4 19 11 35 16 35 4
0 11 15 15 33 6 33 20 70 36 97 5 8 12 22 16 30 15 36 45 107 54 130 6 14 17
38 25 53 8 16 14 35 14 44 0 8 7 27 15 41 25 47 55 120 55 136 0 9 4 16 9 16
5 0 11 8 13 18 7 27 143 23 163 -4z m215 -330 c0 -17 -22 -14 -28 4 -2 7 3 12
12 12 9 0 16 -7 16 -16z m-374 -585 c11 -18 -16 -40 -36 -29 -27 15 -50 12
-50 -5 0 -8 7 -15 15 -15 8 0 15 -5 15 -10 0 -17 -31 -24 -40 -10 -4 7 -17 11
-28 8 -18 -5 -18 -3 -7 19 7 13 21 30 31 37 21 16 91 19 100 5z"/>
<path d="M4754 3331 c-4 -17 -11 -34 -15 -37 -5 -3 -9 -13 -9 -22 0 -9 -7 -30
-15 -46 -8 -15 -15 -36 -15 -45 0 -9 -16 -47 -35 -86 -55 -110 -61 -105 120
-105 128 0 155 2 155 14 0 8 -5 18 -10 21 -16 10 -71 132 -105 235 -35 103
-60 128 -71 71z m29 -145 c3 -12 -30 -32 -39 -24 -11 12 5 40 21 36 9 -2 17
-7 18 -12z"/>
</g>
</svg>
